<svg width="289" height="217" fill="none" xmlns="http://www.w3.org/2000/svg"><path opacity=".05" d="M221.539 59.005C212.376 25.01 181.402 0 144.595 0c-44.03 0-79.71 35.768-79.71 79.877 0 .329.026.644.026.96C27.881 85.275 0 104.518 0 127.611c0 13.556 9.634 25.785 25.076 34.481-.957 3.244-1.482 6.607-1.482 10.074 0 24.603 25.522 44.556 57.02 44.556 20.108 0 37.778-8.144 47.923-20.425 16.949 12.702 39.272 20.425 63.745 20.425 52.983 0 95.938-36.162 95.938-80.783 0-36.018-27.999-66.519-66.681-76.935Z" fill="#C6C6C6"/></svg>