<svg width="140" height="105" fill="none" xmlns="http://www.w3.org/2000/svg"><path opacity=".05" d="M107.346 28.44C102.945 12.152 88.065.154 70.381.154c-21.148 0-38.296 17.148-38.296 38.295 0 .157.011.302.011.458C14.313 41.03.918 50.257.918 61.328c0 6.502 4.624 12.367 12.042 16.522a17.047 17.047 0 0 0-.715 4.827c0 11.796 12.266 21.359 27.392 21.359 9.663 0 18.142-3.899 23.024-9.797 8.144 6.088 18.869 9.797 30.62 9.797 25.449 0 46.082-17.338 46.082-38.72.012-17.26-13.439-31.883-32.017-36.876Z" fill="#C6C6C6"/></svg>