<svg width="208" height="158" fill="none" xmlns="http://www.w3.org/2000/svg"><path opacity=".1" d="M159.714 42.885C153.109 18.177 130.778 0 104.243 0 72.5 0 46.777 25.996 46.777 58.055c0 .239.02.468.02.697C20.1 61.979 0 75.965 0 92.749c0 9.852 6.946 18.74 18.078 25.061a25.984 25.984 0 0 0-1.068 7.322c0 17.882 18.4 32.383 41.107 32.383 14.497 0 27.235-5.919 34.55-14.845 12.218 9.232 28.312 14.845 45.955 14.845 38.197 0 69.164-26.282 69.164-58.713 0-26.178-20.185-48.346-48.072-55.917Z" fill="#C6C6C6"/></svg>