<svg width="173" height="130" fill="none" xmlns="http://www.w3.org/2000/svg"><path opacity=".1" d="M132.236 35.281C126.767 14.955 108.279 0 86.309 0c-26.282 0-47.58 21.387-47.58 47.762 0 .196.016.385.016.573C16.642 50.99 0 62.496 0 76.304c0 8.105 5.75 15.418 14.968 20.617a21.25 21.25 0 0 0-.884 6.025c0 14.711 15.233 26.641 34.035 26.641 12.002 0 22.549-4.87 28.605-12.213 10.117 7.595 23.441 12.213 38.049 12.213 31.625 0 57.265-21.623 57.265-48.303-.008-21.537-16.72-39.774-39.802-46.003Z" fill="#C6C6C6"/></svg>