<svg width="127" height="165" fill="none" xmlns="http://www.w3.org/2000/svg"><path opacity=".15" d="M76.3 44.71C69.34 18.95 45.81 0 17.848 0c-33.449 0-60.555 27.103-60.555 60.526 0 .248.02.487.02.726C-70.819 64.616-92 79.198-92 96.695c0 10.272 7.32 19.539 19.05 26.128a26.819 26.819 0 0 0-1.126 7.634c0 18.642 19.389 33.761 43.318 33.761 15.276 0 28.7-6.171 36.407-15.477 12.875 9.625 29.834 15.477 48.426 15.477 40.25 0 72.883-27.401 72.883-61.212 0-27.292-21.271-50.403-50.657-58.296Z" fill="#C6C6C6"/></svg>