<svg width="177" height="186" fill="none" xmlns="http://www.w3.org/2000/svg"><path opacity=".05" d="M119.806 51.075C111.997 22.163 85.6.893 54.231.893c-37.525 0-67.933 30.42-67.933 67.933 0 .28.022.547.022.816C-45.239 73.416-69 89.782-69 109.422c0 11.528 8.21 21.929 21.37 29.324a30.117 30.117 0 0 0-1.262 8.569c0 20.923 21.75 37.893 48.596 37.893 17.136 0 32.195-6.927 40.842-17.372 14.444 10.803 33.469 17.372 54.326 17.372 45.154 0 81.763-30.755 81.763-68.704-.012-30.632-23.873-56.571-56.829-65.43Z" fill="#C6C6C6"/></svg>